<svg xmlns="http://www.w3.org/2000/svg" viewBox="0 0 64 64">
  <defs>
    <linearGradient id="bg" x1="8" y1="8" x2="56" y2="56" gradientUnits="userSpaceOnUse">
      <stop offset="0" stop-color="#050505" />
      <stop offset="0.55" stop-color="#181818" />
      <stop offset="1" stop-color="#2c2c2c" />
    </linearGradient>
    <linearGradient id="wing" x1="16" y1="18" x2="48" y2="42" gradientUnits="userSpaceOnUse">
      <stop offset="0" stop-color="#fafaf7" />
      <stop offset="0.7" stop-color="#d3d3ce" />
      <stop offset="1" stop-color="#8e8e88" />
    </linearGradient>
  </defs>
  <rect x="6" y="6" width="52" height="52" rx="15" fill="url(#bg)" />
  <path
    d="M18 37.5c4.9-8 10.5-12.7 16.9-14.2 2.4-.6 4.8-.8 7.2-.5-2.7 1.2-4.7 2.8-6.1 4.9 4.4-.6 8.2.2 11.5 2.6-6.1.3-10.7 1.7-13.9 4.3-2.8 2.2-5.2 4.4-7.3 6.8-2.6-2.3-5.1-3.5-7.7-3.9-.6-.1-1.1-.1-1.7 0 .3-.1.7-.1 1.1 0Z"
    fill="url(#wing)"
  />
</svg>
